<?xml version="1.0" encoding="UTF-8" standalone="no"?>
<!DOCTYPE svg PUBLIC "-//W3C//DTD SVG 1.1//EN"
 "http://www.w3.org/Graphics/SVG/1.1/DTD/svg11.dtd">
<!-- Generated by graphviz version 2.47.0 (20210316.0004)
 -->
<!-- Title: dependencies Pages: 1 -->
<svg width="657pt" height="287pt"
 viewBox="0.00 0.00 657.00 287.00" xmlns="http://www.w3.org/2000/svg" xmlns:xlink="http://www.w3.org/1999/xlink">
<g id="graph0" class="graph" transform="scale(1 1) rotate(0) translate(4 283)">
<title>dependencies</title>
<polygon fill="white" stroke="transparent" points="-4,4 -4,-283 653,-283 653,4 -4,4"/>
<text text-anchor="start" x="303.51" y="-42.4" font-family="Times-12" font-weight="bold" font-size="14.00">Legend</text>
<polygon fill="#ffffb3" stroke="transparent" points="90.5,-10 90.5,-30 110.5,-30 110.5,-10 90.5,-10"/>
<text text-anchor="start" x="114.13" y="-15.4" font-family="Times-12" font-size="14.00"> &#160;Declarations</text>
<polygon fill="#8dd3c7" stroke="transparent" points="203.5,-10 203.5,-30 223.5,-30 223.5,-10 203.5,-10"/>
<text text-anchor="start" x="227.23" y="-15.4" font-family="Times-12" font-size="14.00"> &#160;Module</text>
<polygon fill="#80b1d3" stroke="transparent" points="289.5,-10 289.5,-30 309.5,-30 309.5,-10 289.5,-10"/>
<text text-anchor="start" x="313.28" y="-15.4" font-family="Times-12" font-size="14.00"> &#160;Bootstrap</text>
<polygon fill="#fdb462" stroke="transparent" points="386.5,-10 386.5,-30 406.5,-30 406.5,-10 386.5,-10"/>
<text text-anchor="start" x="410.17" y="-15.4" font-family="Times-12" font-size="14.00"> &#160;Providers</text>
<polygon fill="#fb8072" stroke="transparent" points="482.5,-10 482.5,-30 502.5,-30 502.5,-10 482.5,-10"/>
<text text-anchor="start" x="506.23" y="-15.4" font-family="Times-12" font-size="14.00"> &#160;Exports</text>
<g id="clust1" class="cluster">
<title>cluster_AddressesModule</title>
<polygon fill="none" stroke="black" stroke-dasharray="1,5" points="8,-70 8,-206 200,-206 200,-70 8,-70"/>
</g>
<g id="clust6" class="cluster">
<title>cluster_AddressesModule_providers</title>
<polygon fill="none" stroke="black" points="16,-78 16,-130 192,-130 192,-78 16,-78"/>
</g>
<g id="clust7" class="cluster">
<title>cluster_AppModule</title>
<polygon fill="none" stroke="black" stroke-dasharray="1,5" points="208,-146 208,-271 594,-271 594,-146 208,-146"/>
</g>
<g id="clust9" class="cluster">
<title>cluster_AppModule_imports</title>
<polygon fill="none" stroke="black" points="354,-154 354,-206 586,-206 586,-154 354,-154"/>
</g>
<g id="clust12" class="cluster">
<title>cluster_AppModule_providers</title>
<polygon fill="none" stroke="black" points="216,-154 216,-206 346,-206 346,-154 216,-154"/>
</g>
<g id="clust13" class="cluster">
<title>cluster_BuildModule</title>
<polygon fill="none" stroke="black" stroke-dasharray="1,5" points="301,-70 301,-138 455,-138 455,-70 301,-70"/>
</g>
<g id="clust18" class="cluster">
<title>cluster_BuildModule_providers</title>
<polygon fill="none" stroke="black" points="309,-78 309,-130 447,-130 447,-78 309,-78"/>
</g>
<g id="clust19" class="cluster">
<title>cluster_SessionsModule</title>
<polygon fill="none" stroke="black" stroke-dasharray="1,5" points="463,-70 463,-138 641,-138 641,-70 463,-70"/>
</g>
<g id="clust24" class="cluster">
<title>cluster_SessionsModule_providers</title>
<polygon fill="none" stroke="black" points="471,-78 471,-130 633,-130 633,-78 471,-78"/>
</g>
<!-- AddressesService -->
<g id="node1" class="node">
<title>AddressesService</title>
<ellipse fill="#fdb462" stroke="black" cx="104" cy="-104" rx="79.85" ry="18"/>
<text text-anchor="middle" x="104" y="-99.8" font-family="Times,serif" font-size="14.00">AddressesService</text>
</g>
<!-- AddressesModule -->
<g id="node2" class="node">
<title>AddressesModule</title>
<polygon fill="#8dd3c7" stroke="black" points="176.58,-198 173.58,-202 152.58,-202 149.58,-198 59.42,-198 59.42,-162 176.58,-162 176.58,-198"/>
<text text-anchor="middle" x="118" y="-175.8" font-family="Times,serif" font-size="14.00">AddressesModule</text>
</g>
<!-- AddressesService&#45;&gt;AddressesModule -->
<g id="edge1" class="edge">
<title>AddressesService&#45;&gt;AddressesModule</title>
<path fill="none" stroke="black" d="M118,-122.01C118,-122.01 118,-151.85 118,-151.85"/>
<polygon fill="black" stroke="black" points="114.5,-151.85 118,-161.85 121.5,-151.85 114.5,-151.85"/>
</g>
<!-- AppModule -->
<g id="node5" class="node">
<title>AppModule</title>
<polygon fill="#8dd3c7" stroke="black" points="385.66,-263 382.66,-267 361.66,-267 358.66,-263 302.34,-263 302.34,-227 385.66,-227 385.66,-263"/>
<text text-anchor="middle" x="344" y="-240.8" font-family="Times,serif" font-size="14.00">AppModule</text>
</g>
<!-- AddressesModule&#45;&gt;AppModule -->
<g id="edge2" class="edge">
<title>AddressesModule&#45;&gt;AppModule</title>
<path fill="none" stroke="black" d="M118,-198.11C118,-217.34 118,-245 118,-245 118,-245 292.28,-245 292.28,-245"/>
<polygon fill="black" stroke="black" points="292.28,-248.5 302.28,-245 292.28,-241.5 292.28,-248.5"/>
</g>
<!-- BuildModule -->
<g id="node3" class="node">
<title>BuildModule</title>
<polygon fill="#8dd3c7" stroke="black" points="452.17,-198 449.17,-202 428.17,-202 425.17,-198 361.83,-198 361.83,-162 452.17,-162 452.17,-198"/>
<text text-anchor="middle" x="407" y="-175.8" font-family="Times,serif" font-size="14.00">BuildModule</text>
</g>
<!-- BuildModule&#45;&gt;AppModule -->
<g id="edge3" class="edge">
<title>BuildModule&#45;&gt;AppModule</title>
<path fill="none" stroke="black" d="M373.75,-198.11C373.75,-198.11 373.75,-216.99 373.75,-216.99"/>
<polygon fill="black" stroke="black" points="370.25,-216.99 373.75,-226.99 377.25,-216.99 370.25,-216.99"/>
</g>
<!-- SessionsModule -->
<g id="node4" class="node">
<title>SessionsModule</title>
<polygon fill="#8dd3c7" stroke="black" points="577.77,-198 574.77,-202 553.77,-202 550.77,-198 470.23,-198 470.23,-162 577.77,-162 577.77,-198"/>
<text text-anchor="middle" x="524" y="-175.8" font-family="Times,serif" font-size="14.00">SessionsModule</text>
</g>
<!-- SessionsModule&#45;&gt;AppModule -->
<g id="edge4" class="edge">
<title>SessionsModule&#45;&gt;AppModule</title>
<path fill="none" stroke="black" d="M524,-198.11C524,-217.34 524,-245 524,-245 524,-245 395.75,-245 395.75,-245"/>
<polygon fill="black" stroke="black" points="395.75,-241.5 385.75,-245 395.75,-248.5 395.75,-241.5"/>
</g>
<!-- AppService -->
<g id="node6" class="node">
<title>AppService</title>
<ellipse fill="#fdb462" stroke="black" cx="281" cy="-180" rx="56.74" ry="18"/>
<text text-anchor="middle" x="281" y="-175.8" font-family="Times,serif" font-size="14.00">AppService</text>
</g>
<!-- AppService&#45;&gt;AppModule -->
<g id="edge5" class="edge">
<title>AppService&#45;&gt;AppModule</title>
<path fill="none" stroke="black" d="M319.9,-193.15C319.9,-193.15 319.9,-216.69 319.9,-216.69"/>
<polygon fill="black" stroke="black" points="316.4,-216.69 319.9,-226.69 323.4,-216.69 316.4,-216.69"/>
</g>
<!-- BuildService -->
<g id="node7" class="node">
<title>BuildService</title>
<ellipse fill="#fdb462" stroke="black" cx="378" cy="-104" rx="61.41" ry="18"/>
<text text-anchor="middle" x="378" y="-99.8" font-family="Times,serif" font-size="14.00">BuildService</text>
</g>
<!-- BuildService&#45;&gt;BuildModule -->
<g id="edge6" class="edge">
<title>BuildService&#45;&gt;BuildModule</title>
<path fill="none" stroke="black" d="M400.56,-120.87C400.56,-120.87 400.56,-151.85 400.56,-151.85"/>
<polygon fill="black" stroke="black" points="397.06,-151.85 400.56,-161.85 404.06,-151.85 397.06,-151.85"/>
</g>
<!-- SessionsService -->
<g id="node8" class="node">
<title>SessionsService</title>
<ellipse fill="#fdb462" stroke="black" cx="552" cy="-104" rx="73.01" ry="18"/>
<text text-anchor="middle" x="552" y="-99.8" font-family="Times,serif" font-size="14.00">SessionsService</text>
</g>
<!-- SessionsService&#45;&gt;SessionsModule -->
<g id="edge7" class="edge">
<title>SessionsService&#45;&gt;SessionsModule</title>
<path fill="none" stroke="black" d="M528.32,-121.25C528.32,-121.25 528.32,-151.76 528.32,-151.76"/>
<polygon fill="black" stroke="black" points="524.82,-151.76 528.32,-161.76 531.82,-151.76 524.82,-151.76"/>
</g>
</g>
</svg>
